<svg xmlns="http://www.w3.org/2000/svg" version="1.1" viewBox="0.00 0.00 768.00 325.00" width="768" height="325">
<g stroke-width="2.00" fill="none" stroke-linecap="butt">
<path stroke="#a41820" d="
  M 200.26 117.92
  L 197.69 136.35" class="svg-elem-1"></path>
<path stroke="#d51b24" d="
  M 222.05 139.64
  L 219.21 155.62" class="svg-elem-2"></path>
<path stroke="#a41820" d="
  M 181.03 139.17
  L 175.05 152.54" class="svg-elem-3"></path>
<path stroke="#d51b24" d="
  M 211.47 166.24
  L 207.77 183.58" class="svg-elem-4"></path>
<path stroke="#a41820" d="
  M 154.76 146.74
  L 149.51 162.55" class="svg-elem-5"></path>
<path stroke="#d51b24" d="
  M 192.12 184.92
  L 187.25 199.28" class="svg-elem-6"></path>
<path stroke="#a41820" d="
  M 142.55 172.89
  Q 139.74 181.16 138.55 189.91" class="svg-elem-7"></path>
<path stroke="#d51b24" d="
  M 173.47 202.99
  L 171.03 219.62" class="svg-elem-8"></path>
<path stroke="#a41820" d="
  M 125.04 195.90
  L 124.03 213.88" class="svg-elem-9"></path>
<path stroke="#d51b24" d="
  M 161.73 229.12
  L 159.49 248.61" class="svg-elem-10"></path>
</g>
<path fill="#8b161e" d="
  M 200.26 117.92
  L 197.69 136.35
  C 188.03 127.90 179.89 119.57 175.38 108.88
  Q 166.30 87.37 177.22 66.85
  A 0.51 0.51 0.0 0 1 178.18 67.10
  C 177.79 86.69 186.53 103.34 200.26 117.92
  Z" class="svg-elem-11"></path>
<path fill="#8b161e" d="
  M 181.03 139.17
  L 175.05 152.54
  Q 162.34 140.05 156.56 127.91
  Q 146.48 106.69 153.31 83.57
  Q 155.09 77.58 158.82 72.23
  A 0.49 0.49 0.0 0 1 159.70 72.64
  Q 151.74 101.52 168.83 125.16
  Q 174.30 132.72 181.03 139.17
  Z" class="svg-elem-12"></path>
<path fill="#8b161e" d="
  M 154.76 146.74
  L 149.51 162.55
  Q 142.68 154.07 139.43 146.78
  Q 128.64 122.55 140.34 98.55
  Q 141.23 96.71 142.46 95.49
  A 0.59 0.59 0.0 0 1 143.45 96.03
  Q 138.90 118.74 150.12 138.92
  Q 152.32 142.87 154.76 146.74
  Z" class="svg-elem-13"></path>
<path fill="#ffffff" d="
  M 312.25 107.29
  Q 312.76 107.29 312.87 107.62
  Q 321.27 132.46 346.07 206.36
  A 0.16 0.15 -10.2 0 1 345.92 206.57
  L 341.00 206.57
  A 0.26 0.25 80.3 0 1 340.76 206.39
  Q 324.34 156.83 312.47 120.14
  Q 312.38 119.86 312.25 119.86
  Q 312.12 119.86 312.03 120.14
  Q 300.22 156.85 283.87 206.43
  A 0.26 0.25 -80.4 0 1 283.63 206.61
  L 278.71 206.62
  A 0.16 0.15 10.1 0 1 278.56 206.41
  Q 303.26 132.47 311.62 107.62
  Q 311.73 107.29 312.25 107.29
  Z" class="svg-elem-14"></path>
<path fill="#ffffff" d="
  M 360.94 111.31
  A 0.30 0.30 0.0 0 1 360.63 111.01
  L 360.63 107.66
  A 0.26 0.26 0.0 0 1 360.88 107.40
  Q 369.87 106.90 376.91 107.87
  C 391.78 109.90 402.37 121.81 404.24 136.44
  Q 405.37 145.38 404.11 153.06
  C 402.58 162.40 396.82 172.25 388.31 176.78
  C 381.15 180.58 374.36 181.03 365.73 181.24
  A 0.62 0.62 0.0 0 0 365.13 181.86
  L 365.13 206.21
  A 0.39 0.39 0.0 0 1 364.74 206.60
  L 360.98 206.60
  A 0.37 0.37 0.0 0 1 360.61 206.23
  L 360.61 177.54
  A 0.57 0.56 -0.5 0 1 361.17 176.98
  C 365.40 176.90 372.27 177.25 376.95 176.29
  C 395.77 172.43 401.92 155.87 399.92 138.47
  C 398.09 122.52 388.29 111.98 371.49 111.40
  Q 366.62 111.22 360.94 111.31
  Z" class="svg-elem-15"></path>
<path fill="#ffffff" d="
  M 568.84 111.33
  L 558.55 111.33
  A 0.49 0.49 0.0 0 0 558.06 111.82
  L 558.06 206.10
  A 0.49 0.49 0.0 0 1 557.57 206.59
  L 554.10 206.59
  A 0.49 0.49 0.0 0 1 553.61 206.10
  L 553.61 111.82
  A 0.49 0.49 0.0 0 0 553.12 111.33
  L 532.75 111.33
  A 0.49 0.49 0.0 0 1 532.26 110.84
  L 532.26 107.74
  A 0.49 0.49 0.0 0 1 532.75 107.25
  L 568.84 107.25
  A 0.49 0.49 0.0 0 1 569.33 107.74
  L 569.33 110.84
  A 0.49 0.49 0.0 0 1 568.84 111.33
  Z" class="svg-elem-16"></path>
<rect fill="#ffffff" x="-3.48" y="-2.05" transform="translate(576.00,109.27) rotate(-0.1)" width="6.96" height="4.10" rx="0.49" class="svg-elem-17"></rect>
<rect fill="#ffffff" x="595.81" y="107.26" width="4.42" height="99.30" rx="0.43" class="svg-elem-18"></rect>
<path fill="#ffffff" d="
  M 425.02 134.26
  A 0.43 0.42 -59.5 0 1 424.44 134.42
  L 421.62 132.79
  A 0.43 0.42 31.1 0 1 421.47 132.21
  Q 425.35 125.81 428.31 122.86
  Q 445.93 105.35 470.12 107.71
  Q 493.22 109.96 507.08 128.96
  Q 513.03 137.12 514.87 147.34
  C 517.59 162.50 514.76 175.77 504.90 187.64
  Q 488.96 206.83 464.53 206.58
  Q 452.62 206.45 441.75 201.09
  A 0.29 0.29 0.0 0 1 441.63 200.68
  L 443.36 197.67
  A 0.33 0.32 -60.9 0 1 443.79 197.54
  Q 453.79 202.46 464.49 202.50
  Q 487.49 202.58 501.72 185.16
  Q 514.64 169.35 510.81 148.69
  C 506.13 123.42 481.82 108.18 457.26 112.14
  Q 436.23 115.53 425.02 134.26
  Z" class="svg-elem-19"></path>
<path fill="#8b161e" d="
  M 142.55 172.89
  Q 139.74 181.16 138.55 189.91
  C 128.25 179.20 120.74 165.44 119.67 150.62
  Q 118.71 137.27 122.39 125.38
  Q 123.84 120.70 126.44 117.63
  A 0.53 0.53 0.0 0 1 127.35 118.11
  Q 124.29 129.47 127.03 141.56
  Q 130.99 159.07 142.55 172.89
  Z" class="svg-elem-20"></path>
<path fill="#bc1922" d="
  M 200.26 117.92
  L 222.05 139.64
  L 219.21 155.62
  L 197.69 136.35
  L 200.26 117.92
  Z" class="svg-elem-21"></path>
<path fill="#ffffff" d="
  M 642.88 133.81
  L 642.88 206.20
  A 0.39 0.39 0.0 0 1 642.49 206.59
  L 639.12 206.59
  A 0.39 0.39 0.0 0 1 638.73 206.20
  L 638.73 172.95
  A 0.39 0.39 0.0 0 0 638.34 172.56
  L 602.28 172.56
  A 0.39 0.39 0.0 0 1 601.89 172.17
  L 601.89 168.90
  A 0.39 0.39 0.0 0 1 602.28 168.51
  L 638.33 168.51
  A 0.39 0.39 0.0 0 0 638.72 168.12
  L 638.72 133.81
  A 0.39 0.39 0.0 0 1 639.11 133.42
  L 642.49 133.42
  A 0.39 0.39 0.0 0 1 642.88 133.81
  Z" class="svg-elem-22"></path>
<path fill="#bc1922" d="
  M 181.03 139.17
  L 211.47 166.24
  L 207.77 183.58
  L 175.05 152.54
  L 181.03 139.17
  Z" class="svg-elem-23"></path>
<path fill="#ed1d26" d="
  M 219.21 155.62
  L 222.05 139.64
  C 230.71 147.94 240.21 158.64 244.61 169.24
  C 249.79 181.69 251.38 195.29 246.31 208.19
  A 0.61 0.61 0.0 0 1 245.13 207.89
  C 246.75 194.21 240.89 179.23 232.38 168.86
  Q 226.75 161.99 219.21 155.62
  Z" class="svg-elem-24"></path>
<path fill="#bc1922" d="
  M 154.76 146.74
  C 165.54 161.13 178.72 173.04 192.12 184.92
  L 187.25 199.28
  C 179.00 191.15 170.00 183.89 161.65 175.85
  Q 155.14 169.58 149.51 162.55
  L 154.76 146.74
  Z" class="svg-elem-25"></path>
<path fill="#8b161e" d="
  M 125.04 195.90
  L 124.03 213.88
  Q 115.78 204.62 110.19 193.84
  Q 99.22 172.69 106.82 149.17
  Q 107.10 148.29 107.78 148.03
  A 0.65 0.64 83.4 0 1 108.64 148.72
  C 106.26 167.84 112.88 181.85 125.04 195.90
  Z" class="svg-elem-26"></path>
<path fill="#ed1d26" d="
  M 211.47 166.24
  Q 217.67 172.23 222.08 177.93
  Q 229.48 187.52 232.87 200.86
  Q 238.45 222.82 227.69 242.89
  Q 227.39 243.46 226.88 243.41
  A 0.55 0.53 9.7 0 1 226.39 242.74
  C 232.34 220.78 222.70 199.57 207.77 183.58
  L 211.47 166.24
  Z" class="svg-elem-27"></path>
<path fill="#bc1922" d="
  M 142.55 172.89
  Q 147.97 179.62 154.41 185.34
  Q 164.15 193.98 173.47 202.99
  L 171.03 219.62
  Q 154.89 205.59 146.12 197.63
  Q 142.83 194.63 138.55 189.91
  Q 139.74 181.16 142.55 172.89
  Z" class="svg-elem-28"></path>
<path fill="#ffffff" d="
  M 317.05 206.59
  L 313.34 206.59
  A 0.42 0.42 0.0 0 1 312.94 206.28
  L 305.61 178.87
  A 0.42 0.42 0.0 0 1 306.02 178.34
  L 309.73 178.34
  A 0.42 0.42 0.0 0 1 310.13 178.65
  L 317.46 206.06
  A 0.42 0.42 0.0 0 1 317.05 206.59
  Z" class="svg-elem-29"></path>
<path fill="#ed1d26" d="
  M 187.25 199.28
  L 192.12 184.92
  Q 203.77 194.77 210.82 206.18
  Q 223.12 226.07 217.45 249.97
  Q 216.41 254.37 211.30 263.50
  A 0.16 0.07 -61.7 0 1 211.17 263.60
  Q 211.07 263.56 211.05 263.57
  A 0.44 0.43 86.2 0 1 210.49 263.07
  C 215.53 238.92 203.72 216.14 187.25 199.28
  Z" class="svg-elem-30"></path>
<path fill="#bc1922" d="
  M 125.04 195.90
  Q 132.41 203.74 136.79 207.46
  Q 149.42 218.19 161.73 229.12
  L 159.49 248.61
  Q 154.23 243.03 150.11 239.40
  Q 135.66 226.70 124.03 213.88
  L 125.04 195.90
  Z" class="svg-elem-31"></path>
<path fill="#ed1d26" d="
  M 173.47 202.99
  C 183.86 212.33 192.41 221.32 198.02 233.92
  Q 209.12 258.83 196.32 282.52
  Q 196.02 283.08 195.40 283.61
  A 0.34 0.34 0.0 0 1 194.84 283.27
  Q 201.52 255.75 184.17 233.81
  Q 178.15 226.20 171.03 219.62
  L 173.47 202.99
  Z" class="svg-elem-32"></path>
<path fill="#ed1d26" d="
  M 161.73 229.12
  C 175.20 242.26 186.41 256.94 182.36 276.70
  Q 180.93 283.67 178.82 288.15
  Q 178.60 288.62 178.27 288.64
  A 1.04 1.02 88.4 0 1 177.20 287.61
  C 177.13 273.04 169.60 259.59 159.49 248.61
  L 161.73 229.12
  Z" class="svg-elem-33"></path>
<path fill="#ffffff" d="
  M 284.16 239.16
  Q 284.23 239.16 284.26 239.15
  A 0.33 0.19 -2.2 0 0 284.43 239.05
  L 286.27 236.05
  A 1.03 1.02 -74.1 0 1 287.14 235.56
  L 289.08 235.56
  A 0.29 0.29 0.0 0 1 289.33 235.99
  L 285.62 242.41
  A 0.91 0.90 -30.5 0 0 285.50 242.86
  L 285.50 245.49
  A 0.68 0.67 86.9 0 1 284.90 246.17
  Q 284.53 246.21 284.15 246.21
  Q 283.77 246.20 283.41 246.16
  A 0.68 0.67 -86.8 0 1 282.81 245.49
  L 282.81 242.86
  A 0.91 0.90 30.7 0 0 282.70 242.41
  L 279.00 235.98
  A 0.29 0.29 0.0 0 1 279.25 235.55
  L 281.19 235.55
  A 1.03 1.02 74.3 0 1 282.06 236.04
  L 283.89 239.05
  A 0.33 0.19 2.4 0 0 284.06 239.15
  Q 284.09 239.16 284.16 239.16
  Z" class="svg-elem-34"></path>
<path fill="#ffffff" d="
  M 304.58 240.90
  A 5.51 5.51 0.0 0 1 299.07 246.41
  A 5.51 5.51 0.0 0 1 293.56 240.90
  A 5.51 5.51 0.0 0 1 299.07 235.39
  A 5.51 5.51 0.0 0 1 304.58 240.90
  Z
  M 301.93 240.92
  A 2.87 2.87 0.0 0 0 299.06 238.05
  A 2.87 2.87 0.0 0 0 296.19 240.92
  A 2.87 2.87 0.0 0 0 299.06 243.79
  A 2.87 2.87 0.0 0 0 301.93 240.92
  Z" class="svg-elem-35"></path>
<path fill="#ffffff" d="
  M 313.25 246.16
  C 307.57 246.14 308.32 240.62 308.31 236.29
  A 0.79 0.78 -0.0 0 1 309.09 235.51
  L 310.42 235.51
  A 0.74 0.74 0.0 0 1 311.16 236.29
  Q 311.00 239.28 311.14 241.68
  C 311.22 242.95 311.92 243.60 313.25 243.61
  C 314.59 243.61 315.30 242.97 315.39 241.70
  Q 315.54 239.30 315.41 236.31
  A 0.74 0.74 0.0 0 1 316.15 235.53
  L 317.48 235.54
  A 0.79 0.78 0.5 0 1 318.26 236.33
  C 318.22 240.66 318.92 246.18 313.25 246.16
  Z" class="svg-elem-36"></path>
<path fill="#ffffff" d="
  M 324.03 246.21
  L 322.21 246.22
  A 0.40 0.39 89.9 0 1 321.82 245.82
  L 321.81 236.26
  A 0.66 0.66 0.0 0 1 322.44 235.60
  Q 327.45 235.43 328.41 235.93
  Q 331.50 237.53 330.38 240.52
  C 330.16 241.12 329.63 241.48 329.26 242.02
  A 0.54 0.52 51.6 0 0 329.21 242.54
  L 330.57 245.87
  A 0.26 0.26 0.0 0 1 330.33 246.22
  L 328.90 246.23
  A 0.94 0.94 0.0 0 1 328.02 245.62
  Q 327.41 244.06 326.41 242.98
  A 1.09 1.08 -66.7 0 0 324.54 243.73
  L 324.54 245.70
  A 0.51 0.51 0.0 0 1 324.03 246.21
  Z
  M 324.63 238.20
  L 324.52 240.01
  A 0.53 0.53 0.0 0 0 325.01 240.58
  L 325.96 240.64
  A 1.84 1.29 3.6 0 0 327.88 239.46
  L 327.90 239.16
  A 1.84 1.29 3.6 0 0 326.14 237.76
  L 325.19 237.70
  A 0.53 0.53 0.0 0 0 324.63 238.20
  Z" class="svg-elem-37"></path>
<path fill="#ffffff" d="
  M 341.95 235.99
  A 0.42 0.42 0.0 0 1 342.37 235.57
  L 346.97 235.59
  A 5.19 5.08 -89.8 0 1 352.03 240.80
  L 352.03 241.06
  A 5.19 5.08 -89.8 0 1 346.93 246.23
  L 342.33 246.21
  A 0.42 0.42 0.0 0 1 341.91 245.79
  L 341.95 235.99
  Z
  M 344.71 238.72
  L 344.69 243.14
  A 0.47 0.47 0.0 0 0 345.16 243.61
  L 346.74 243.62
  A 2.54 2.43 -89.7 0 0 349.18 241.09
  L 349.18 240.81
  A 2.54 2.43 -89.7 0 0 346.76 238.26
  L 345.18 238.25
  A 0.47 0.47 0.0 0 0 344.71 238.72
  Z" class="svg-elem-38"></path>
<path fill="#ffffff" d="
  M 355.61 245.84
  L 355.61 236.25
  A 0.66 0.66 0.0 0 1 356.25 235.59
  Q 361.27 235.42 362.24 235.93
  Q 365.33 237.54 364.21 240.54
  C 363.98 241.14 363.45 241.50 363.08 242.04
  A 0.55 0.52 51.7 0 0 363.03 242.56
  L 364.39 245.90
  A 0.26 0.26 0.0 0 1 364.15 246.26
  L 362.71 246.26
  A 0.94 0.94 0.0 0 1 361.83 245.65
  Q 361.22 244.08 360.22 243.00
  A 1.09 1.08 -66.6 0 0 358.34 243.75
  L 358.34 245.73
  A 0.51 0.51 0.0 0 1 357.83 246.24
  L 356.00 246.24
  A 0.40 0.39 90.0 0 1 355.61 245.84
  Z
  M 358.43 238.22
  L 358.34 240.04
  A 0.52 0.52 0.0 0 0 358.83 240.58
  L 359.99 240.64
  A 1.58 1.24 2.8 0 0 361.63 239.48
  L 361.65 239.10
  A 1.58 1.24 2.8 0 0 360.13 237.78
  L 358.97 237.73
  A 0.52 0.52 0.0 0 0 358.43 238.22
  Z" class="svg-elem-39"></path>
<path fill="#ffffff" d="
  M 375.16 240.94
  Q 375.16 241.51 374.72 241.94
  Q 374.41 242.25 373.72 242.17
  Q 372.81 242.06 371.69 242.19
  A 0.67 0.66 -2.9 0 0 371.09 242.85
  L 371.09 243.15
  A 0.47 0.47 0.0 0 0 371.56 243.62
  L 376.07 243.62
  A 0.53 0.53 0.0 0 1 376.60 244.15
  L 376.60 245.71
  A 0.55 0.55 0.0 0 1 376.05 246.26
  L 369.15 246.26
  A 0.67 0.67 0.0 0 1 368.48 245.67
  Q 368.42 245.10 368.43 240.93
  Q 368.43 236.75 368.50 236.18
  A 0.67 0.67 0.0 0 1 369.17 235.59
  L 376.07 235.62
  A 0.55 0.55 0.0 0 1 376.62 236.17
  L 376.61 237.73
  A 0.53 0.53 0.0 0 1 376.08 238.26
  L 371.57 238.24
  A 0.47 0.47 0.0 0 0 371.10 238.71
  L 371.10 239.01
  A 0.67 0.66 3.1 0 0 371.69 239.67
  Q 372.81 239.81 373.72 239.70
  Q 374.42 239.62 374.72 239.93
  Q 375.16 240.36 375.16 240.94
  Z" class="svg-elem-40"></path>
<path fill="#ffffff" d="
  M 385.93 235.55
  Q 386.49 235.55 386.69 235.57
  A 0.94 0.93 -9.1 0 1 387.49 236.14
  L 391.45 245.85
  A 0.28 0.27 -11.2 0 1 391.19 246.23
  L 388.94 246.23
  A 0.52 0.52 0.0 0 1 388.44 245.84
  Q 388.21 244.90 387.90 244.44
  A 1.26 1.26 0.0 0 0 386.91 243.87
  Q 386.42 243.84 385.92 243.84
  Q 385.43 243.84 384.94 243.86
  A 1.26 1.26 0.0 0 0 383.94 244.44
  Q 383.63 244.90 383.40 245.84
  A 0.52 0.52 0.0 0 1 382.90 246.22
  L 380.65 246.22
  A 0.28 0.27 11.3 0 1 380.39 245.84
  L 384.37 236.14
  A 0.94 0.93 9.2 0 1 385.17 235.57
  Q 385.38 235.55 385.93 235.55
  Z
  M 385.76 239.72
  Q 385.11 240.41 385.38 241.48
  A 0.63 0.56 -46.6 0 0 386.53 241.38
  Q 386.64 241.00 386.40 239.89
  A 0.38 0.37 -29.6 0 0 385.76 239.72
  Z" class="svg-elem-41"></path>
<path fill="#ffffff" d="
  M 401.09 242.63
  Q 401.13 242.63 401.17 242.62
  A 0.19 0.17 -0.4 0 0 401.29 242.51
  L 403.94 236.06
  A 0.80 0.80 0.0 0 1 404.68 235.56
  L 406.32 235.56
  A 0.62 0.62 0.0 0 1 406.94 236.18
  L 406.94 245.85
  A 0.38 0.38 0.0 0 1 406.56 246.23
  L 404.55 246.23
  A 0.31 0.31 0.0 0 1 404.24 245.92
  L 404.24 242.06
  A 0.17 0.17 0.0 0 0 403.92 241.99
  Q 403.28 243.25 402.20 245.66
  Q 401.90 246.32 401.09 246.32
  Q 400.29 246.33 399.99 245.66
  Q 398.90 243.26 398.25 242.00
  A 0.17 0.17 0.0 0 0 397.93 242.07
  L 397.95 245.93
  A 0.31 0.31 0.0 0 1 397.64 246.24
  L 395.63 246.25
  A 0.38 0.38 0.0 0 1 395.24 245.87
  L 395.21 236.20
  A 0.62 0.62 0.0 0 1 395.83 235.58
  L 397.47 235.57
  A 0.80 0.80 0.0 0 1 398.21 236.07
  L 400.88 242.51
  A 0.19 0.17 0.2 0 0 401.00 242.62
  Q 401.04 242.63 401.09 242.63
  Z" class="svg-elem-42"></path>
<path fill="#ffffff" d="
  M 436.29 240.90
  A 5.51 5.51 0.0 0 1 430.78 246.41
  A 5.51 5.51 0.0 0 1 425.27 240.90
  A 5.51 5.51 0.0 0 1 430.78 235.39
  A 5.51 5.51 0.0 0 1 436.29 240.90
  Z
  M 433.64 240.91
  A 2.86 2.86 0.0 0 0 430.78 238.05
  A 2.86 2.86 0.0 0 0 427.92 240.91
  A 2.86 2.86 0.0 0 0 430.78 243.77
  A 2.86 2.86 0.0 0 0 433.64 240.91
  Z" class="svg-elem-43"></path>
<path fill="#ffffff" d="
  M 444.99 243.63
  C 446.33 243.63 447.04 242.98 447.11 241.71
  Q 447.26 239.31 447.11 236.32
  A 0.74 0.74 0.0 0 1 447.85 235.54
  L 449.18 235.54
  A 0.79 0.78 0.1 0 1 449.97 236.33
  C 449.94 240.66 450.68 246.18 445.00 246.19
  C 439.32 246.19 440.04 240.67 440.00 236.34
  A 0.79 0.78 -0.3 0 1 440.79 235.55
  L 442.12 235.55
  A 0.74 0.74 0.0 0 1 442.86 236.33
  Q 442.72 239.32 442.87 241.72
  C 442.95 242.99 443.66 243.64 444.99 243.63
  Z" class="svg-elem-44"></path>
<path fill="#ffffff" d="
  M 455.75 246.23
  L 453.92 246.23
  A 0.40 0.39 -89.9 0 1 453.54 245.83
  L 453.55 236.27
  A 0.66 0.66 0.0 0 1 454.19 235.61
  Q 459.19 235.45 460.16 235.96
  Q 463.24 237.57 462.12 240.55
  C 461.89 241.15 461.36 241.51 460.99 242.05
  A 0.54 0.52 51.8 0 0 460.94 242.57
  L 462.29 245.90
  A 0.26 0.26 0.0 0 1 462.05 246.26
  L 460.61 246.25
  A 0.94 0.94 0.0 0 1 459.74 245.65
  Q 459.13 244.08 458.14 243.00
  A 1.09 1.08 -66.5 0 0 456.26 243.75
  L 456.26 245.72
  A 0.51 0.51 0.0 0 1 455.75 246.23
  Z
  M 459.5436 238.7917
  A 0.94 0.94 0.0 0 0 458.6336 237.8227
  L 457.2343 237.7787
  A 0.94 0.94 0.0 0 0 456.2653 238.6887
  L 456.2364 239.6083
  A 0.94 0.94 0.0 0 0 457.1464 240.5773
  L 458.5457 240.6213
  A 0.94 0.94 0.0 0 0 459.5147 239.7113
  L 459.5436 238.7917
  Z" class="svg-elem-45"></path>
<path fill="#ffffff" d="
  M 477.74 242.27
  C 475.65 241.44 473.56 240.78 473.78 238.07
  A 1.71 1.69 -24.2 0 1 474.14 237.14
  C 476.12 234.59 482.21 234.75 482.41 238.73
  A 0.64 0.64 0.0 0 1 481.85 239.40
  Q 480.38 239.59 479.78 238.83
  C 479.06 237.92 478.15 237.44 477.20 237.89
  A 0.60 0.60 0.0 0 0 477.09 238.90
  Q 477.42 239.17 478.42 239.56
  C 480.50 240.41 482.59 241.06 482.38 243.77
  A 1.71 1.69 -24.2 0 1 482.02 244.70
  C 480.04 247.25 473.95 247.09 473.75 243.11
  A 0.64 0.64 0.0 0 1 474.31 242.44
  Q 475.78 242.25 476.38 243.01
  C 477.10 243.92 478.01 244.40 478.96 243.95
  A 0.60 0.60 0.0 0 0 479.07 242.94
  Q 478.74 242.68 477.74 242.27
  Z" class="svg-elem-46"></path>
<path fill="#ffffff" d="
  M 497.29 240.91
  A 5.51 5.51 0.0 0 1 491.78 246.42
  A 5.51 5.51 0.0 0 1 486.27 240.91
  A 5.51 5.51 0.0 0 1 491.78 235.40
  A 5.51 5.51 0.0 0 1 497.29 240.91
  Z
  M 494.66 240.93
  A 2.87 2.87 0.0 0 0 491.79 238.06
  A 2.87 2.87 0.0 0 0 488.92 240.93
  A 2.87 2.87 0.0 0 0 491.79 243.80
  A 2.87 2.87 0.0 0 0 494.66 240.93
  Z" class="svg-elem-47"></path>
<path fill="#ffffff" d="
  M 504.40 243.62
  L 508.43 243.62
  A 0.58 0.58 0.0 0 1 509.01 244.20
  L 509.01 245.65
  A 0.58 0.58 0.0 0 1 508.43 246.23
  L 501.67 246.23
  A 0.58 0.58 0.0 0 1 501.09 245.65
  L 501.09 236.14
  A 0.58 0.58 0.0 0 1 501.67 235.56
  L 503.24 235.56
  A 0.58 0.58 0.0 0 1 503.82 236.14
  L 503.82 243.04
  A 0.58 0.58 0.0 0 0 504.40 243.62
  Z" class="svg-elem-48"></path>
<path fill="#ffffff" d="
  M 517.46 246.17
  C 511.80 246.17 512.53 240.67 512.51 236.35
  A 0.78 0.78 0.0 0 1 513.29 235.56
  L 514.62 235.56
  A 0.74 0.74 0.0 0 1 515.35 236.34
  Q 515.21 239.32 515.35 241.71
  C 515.43 242.98 516.13 243.63 517.46 243.63
  C 518.80 243.63 519.51 242.99 519.58 241.72
  Q 519.74 239.32 519.59 236.34
  A 0.74 0.74 0.0 0 1 520.33 235.57
  L 521.66 235.57
  A 0.78 0.78 0.0 0 1 522.44 236.36
  C 522.41 240.68 523.13 246.18 517.46 246.17
  Z" class="svg-elem-49"></path>
<path fill="#ffffff" d="
  M 530.68 235.56
  Q 532.91 235.57 534.78 235.55
  A 0.70 0.70 0.0 0 1 535.49 236.25
  L 535.49 237.62
  A 0.65 0.65 0.0 0 1 534.84 238.27
  L 532.61 238.27
  A 0.58 0.57 -0.5 0 0 532.03 238.85
  L 532.12 245.36
  A 0.95 0.93 74.8 0 1 531.65 246.19
  Q 531.64 246.20 530.76 246.21
  Q 529.88 246.21 529.87 246.21
  A 0.95 0.93 -75.7 0 1 529.39 245.38
  L 529.38 238.87
  A 0.58 0.57 -0.4 0 0 528.79 238.30
  L 526.56 238.33
  A 0.65 0.65 0.0 0 1 525.90 237.70
  L 525.88 236.33
  A 0.70 0.70 0.0 0 1 526.57 235.61
  Q 528.44 235.60 530.68 235.56
  Z" class="svg-elem-50"></path>
<rect fill="#ffffff" x="-1.42" y="-5.32" transform="translate(540.40,240.89) rotate(0.1)" width="2.84" height="10.64" rx="0.46" class="svg-elem-51"></rect>
<path fill="#ffffff" d="
  M 556.62 240.90
  A 5.53 5.53 0.0 0 1 551.09 246.43
  A 5.53 5.53 0.0 0 1 545.56 240.90
  A 5.53 5.53 0.0 0 1 551.09 235.37
  A 5.53 5.53 0.0 0 1 556.62 240.90
  Z
  M 553.90 240.91
  A 2.85 2.85 0.0 0 0 551.05 238.06
  A 2.85 2.85 0.0 0 0 548.20 240.91
  A 2.85 2.85 0.0 0 0 551.05 243.76
  A 2.85 2.85 0.0 0 0 553.90 240.91
  Z" class="svg-elem-52"></path>
<path fill="#ffffff" d="
  M 560.39 245.85
  L 560.39 236.75
  A 1.40 1.40 0.0 0 1 562.88 235.86
  L 567.07 241.03
  A 0.23 0.23 0.0 0 0 567.48 240.89
  L 567.48 236.03
  A 0.44 0.44 0.0 0 1 567.92 235.59
  L 569.82 235.59
  A 0.39 0.39 0.0 0 1 570.21 235.98
  L 570.21 245.02
  A 1.43 1.42 -64.5 0 1 567.68 245.92
  L 563.54 240.83
  A 0.24 0.24 0.0 0 0 563.11 240.98
  L 563.11 245.84
  A 0.40 0.40 0.0 0 1 562.71 246.24
  L 560.78 246.24
  A 0.39 0.39 0.0 0 1 560.39 245.85
  Z" class="svg-elem-53"></path>
<path fill="#ffffff" d="
  M 410.75 247.56
  Q 411.69 246.40 411.18 245.85
  A 1.71 1.66 -15.0 0 1 412.83 243.09
  C 414.05 243.34 414.50 244.98 413.76 246.09
  Q 412.92 247.34 412.23 248.08
  A 0.92 0.91 -57.0 0 1 411.23 248.30
  L 410.90 248.16
  A 0.39 0.38 31.0 0 1 410.75 247.56
  Z" class="svg-elem-54"></path>
</svg>